# xmcd
#
# Track frame offsets: 
#        225
#        14221
#        33316
#        49731
#        68309
#        88406
#        105240
#        118823
#        135509
#        154927
#        171481
#        190836
#
# Disc length: 2780 seconds
#
# Revision: 0
# Processed by: cddbd v1.4PL0 Copyright (c) Steve Scherf et al.
# Submitted via: ExactAudioCopy v0.90b4
#
DISCID=a20ad90c
DTITLE=Honky Tonk Heroes - Line Dance Special
DYEAR=1900
DGENRE=
TTITLE0=Mamas don't let your babies grow up to be cowboys
TTITLE1=Gone country
TTITLE2=Kick a little
TTITLE3=Trick Rider
TTITLE4=Copperhead road
TTITLE5=The dance
TTITLE6=Summertime blues
TTITLE7=Honky tonk attitude
TTITLE8=Amy's back in Austin
TTITLE9=Seminole wind
TTITLE10=Peaceful easy feeling
TTITLE11=Standin' outside the fire
EXTD=
EXTT0=
EXTT1=
EXTT2=
EXTT3=
EXTT4=
EXTT5=
EXTT6=
EXTT7=
EXTT8=
EXTT9=
EXTT10=
EXTT11=
PLAYORDER=
